<?xml version="1.0" encoding="UTF-8" standalone="no"?>
<!-- Created with Inkscape (http://www.inkscape.org/) -->

<svg
   xmlns:dc="http://purl.org/dc/elements/1.1/"
   xmlns:cc="http://creativecommons.org/ns#"
   xmlns:rdf="http://www.w3.org/1999/02/22-rdf-syntax-ns#"
   xmlns:svg="http://www.w3.org/2000/svg"
   xmlns="http://www.w3.org/2000/svg"
   xmlns:xlink="http://www.w3.org/1999/xlink"
   xmlns:sodipodi="http://sodipodi.sourceforge.net/DTD/sodipodi-0.dtd"
   xmlns:inkscape="http://www.inkscape.org/namespaces/inkscape"
   width="35.405388mm"
   height="38.84499mm"
   viewBox="0 0 125.45216 137.63973"
   id="svg2"
   version="1.1"
   inkscape:version="0.91 r13725"
   sodipodi:docname="sx.svg"
   inkscape:export-filename="/home/will/sx.png"
   inkscape:export-xdpi="90"
   inkscape:export-ydpi="90">
  <defs
     id="defs4">
    <linearGradient
       id="linearGradient4846">
      <stop
         id="stop4848"
         offset="0"
         style="stop-color:#65baf3;stop-opacity:1;" />
      <stop
         style="stop-color:#65baf3;stop-opacity:1;"
         offset="0.75"
         id="stop4850" />
      <stop
         id="stop4852"
         offset="0.75"
         style="stop-color:#36a5ef;stop-opacity:1;" />
      <stop
         style="stop-color:#36a5ef;stop-opacity:1;"
         offset="1"
         id="stop4854" />
    </linearGradient>
    <linearGradient
       id="linearGradient3686">
      <stop
         style="stop-color:#5479ae;stop-opacity:1;"
         offset="0"
         id="stop3688" />
      <stop
         id="stop3690"
         offset="0.75"
         style="stop-color:#5479ae;stop-opacity:1;" />
      <stop
         style="stop-color:#205196;stop-opacity:1;"
         offset="0.75"
         id="stop3692" />
      <stop
         id="stop3694"
         offset="1"
         style="stop-color:#205196;stop-opacity:1;" />
    </linearGradient>
    <linearGradient
       id="linearGradient3666">
      <stop
         id="stop3668"
         offset="0"
         style="stop-color:#518fd9;stop-opacity:1;" />
      <stop
         style="stop-color:#518fd9;stop-opacity:1;"
         offset="0.75"
         id="stop3670" />
      <stop
         id="stop3672"
         offset="0.75"
         style="stop-color:#1d6dcd;stop-opacity:1;" />
      <stop
         style="stop-color:#1d6dcd;stop-opacity:1;"
         offset="1"
         id="stop3674" />
    </linearGradient>
    <linearGradient
       inkscape:collect="always"
       xlink:href="#linearGradient4846"
       id="linearGradient4844"
       x1="-79.081757"
       y1="283.1138"
       x2="-19.876425"
       y2="344.00983"
       gradientUnits="userSpaceOnUse"
       gradientTransform="translate(488.55313,131.15373)" />
    <linearGradient
       inkscape:collect="always"
       xlink:href="#linearGradient3666"
       id="linearGradient4862"
       x1="-122.40535"
       y1="400.3822"
       x2="-99.634369"
       y2="423.06076"
       gradientUnits="userSpaceOnUse"
       gradientTransform="matrix(0.95292128,0,0,0.95292128,464.95389,150.57487)" />
    <linearGradient
       inkscape:collect="always"
       xlink:href="#linearGradient3686"
       id="linearGradient4870"
       x1="-212.95235"
       y1="477.93634"
       x2="-182.6236"
       y2="507.84705"
       gradientUnits="userSpaceOnUse"
       gradientTransform="translate(480.47191,124.08266)" />
  </defs>
  <sodipodi:namedview
     id="base"
     pagecolor="#ffffff"
     bordercolor="#666666"
     borderopacity="1.0"
     inkscape:pageopacity="0"
     inkscape:pageshadow="2"
     inkscape:zoom="1"
     inkscape:cx="465.89524"
     inkscape:cy="179.68499"
     inkscape:document-units="px"
     inkscape:current-layer="layer1"
     showgrid="false"
     fit-margin-top="5"
     fit-margin-left="5"
     fit-margin-right="5"
     fit-margin-bottom="5"
     inkscape:window-width="2880"
     inkscape:window-height="1498"
     inkscape:window-x="0"
     inkscape:window-y="0"
     inkscape:window-maximized="1" />
  <metadata
     id="metadata7">
    <rdf:RDF>
      <cc:Work
         rdf:about="">
        <dc:format>image/svg+xml</dc:format>
        <dc:type
           rdf:resource="http://purl.org/dc/dcmitype/StillImage" />
        <dc:title></dc:title>
      </cc:Work>
    </rdf:RDF>
  </metadata>
  <g
     inkscape:label="Layer 1"
     inkscape:groupmode="layer"
     id="layer1"
     transform="translate(-194.57597,-617.50518)">
    <rect
       width="354.98172"
       height="354.98172"
       x="367.20773"
       y="262.03415"
       id="rect4772"
       style="display:none;fill:none" />
    <g
       id="g4788"
       style="display:none"
       transform="matrix(0.6933237,0,0,0.6933237,367.08916,261.89478)">
      <g
         id="g4790"
         style="display:inline" />
    </g>
    <g
       id="g4806"
       style="display:none"
       transform="matrix(0.6933237,0,0,0.6933237,367.08916,261.89478)">
      <g
         id="g4808"
         style="display:inline">
        <path
           inkscape:connector-curvature="0"
           d="m 349.098,256.651 c -0.265,-0.254 37.637,27.605 39.421,25.012 6.362,-9.252 82.046,-93.137 84.784,-116.236 0.242,-2.003 -0.516,-4.096 -0.516,-4.096 0,0 -1.19,-0.144 -6.325,-4.314 -2.692,-2.192 -5.483,-4.581 -5.483,-4.581 -16.054,0.998 -57.885,41.559 -111.062,103.568"
           id="path4810"
           style="display:none;fill:#050505" />
      </g>
    </g>
    <g
       id="g4796"
       style="stroke:none"
       transform="matrix(0.15739948,0,0,0.15739948,247.43469,629.47196)">
      <g
         id="g4800"
         style="stroke:none" />
    </g>
    <g
       id="g4774"
       transform="matrix(0.15739948,0,0,0.15739948,247.43469,629.47196)" />
    <g
       id="g4952"
       transform="matrix(0.22702163,0,0,0.22702163,164.09751,570.01618)">
      <path
         sodipodi:nodetypes="ccsccscsscsc"
         inkscape:connector-curvature="0"
         id="path4806"
         d="m 403.41449,388.7755 c -2.6741,-12.03361 7.6962,-11.399 17.7242,-12.06753 32.3125,-2.22844 76.43569,1.55992 115.65634,9.35948 19.71448,3.92049 23.17582,3.34267 23.17582,3.34267 28.07841,1.33707 49.91718,-13.37067 48.80295,-44.34608 -0.22285,-31.42106 -31.63829,-56.61619 -66.40765,-57.71673 -32.74253,-1.03637 -113.42786,4.67974 -113.42786,4.67974 94.04039,19.38747 109.41387,24.33504 114.31922,35.65513 2.89698,6.68534 -4.8392,13.33227 -30.75254,12.0336 -28.21151,-1.41388 -86.01798,-8.24524 -86.01798,-8.24524 -55.0426,-8.4681 -93.3719,-16.49051 -110.0852,5.34826 -10.919,14.26755 0.1313,18.0725 5.0339,28.32333"
         style="fill:#84d2e9;fill-opacity:1;fill-rule:evenodd;stroke:#000000;stroke-width:0;stroke-linecap:butt;stroke-linejoin:miter;stroke-miterlimit:4;stroke-dasharray:none;stroke-opacity:1" />
      <path
         sodipodi:nodetypes="cscccc"
         inkscape:connector-curvature="0"
         id="path4818"
         d="m 499.36625,501.60118 c -19.95659,-15.28447 -55.33856,-42.75992 -61.50206,-47.615 -12.1801,-9.59442 -31.8078,-24.3181 -33.9177,-37.47548 l -76.6113,-17.55183 c 23.2443,40.55893 56.2956,60.5283 81.8022,80.13911 37.7758,5.9885 54.2997,9.12772 90.22886,22.5032 z"
         style="fill:url(#linearGradient4844);fill-opacity:1;fill-rule:evenodd;stroke:#000000;stroke-width:0;stroke-linecap:butt;stroke-linejoin:miter;stroke-miterlimit:4;stroke-dasharray:none;stroke-opacity:1" />
      <path
         sodipodi:nodetypes="ccccccc"
         inkscape:connector-curvature="0"
         id="path4814"
         d="m 433.15079,512.22758 c -86.7917,-23.73213 -143.5795,-16.71037 -187.4274,6.34368 -21.9905,13.01681 -34.8165,22.85342 -33.3116,41.70349 l 93.6882,11.05699 c 9.3276,-11.26036 34.5389,-12.58769 68.2631,-20.03347 32.2743,-7.8539 154.7509,-6.26654 154.7509,-6.26654 -19.18051,-15.22821 -95.9632,-32.80415 -95.9632,-32.80415 z"
         style="fill:url(#linearGradient4862);fill-opacity:1;fill-rule:evenodd;stroke:#000000;stroke-width:0;stroke-linecap:butt;stroke-linejoin:miter;stroke-miterlimit:4;stroke-dasharray:none;stroke-opacity:1" />
      <path
         sodipodi:nodetypes="cccccccc"
         inkscape:connector-curvature="0"
         id="path4839-6"
         d="m 212.96599,587.14537 c 1.8429,23.08351 11.6545,74.9329 68.3141,73.11653 l 133.0515,1.40072 -12.339,75.76574 73.75297,-75.45038 36.4933,-0.62941 c 149.2534,-82.78703 -174.65397,-24.80201 -200.54897,-44.62823 -4.9981,-6.16606 -12.7038,-7.60189 -4.8341,-17.10232"
         style="fill:url(#linearGradient4870);fill-opacity:1;fill-rule:evenodd;stroke:#000000;stroke-width:0;stroke-linecap:butt;stroke-linejoin:miter;stroke-miterlimit:4;stroke-dasharray:none;stroke-opacity:1" />
    </g>
    <flowRoot
       xml:space="preserve"
       id="flowRoot4936"
       style="font-style:normal;font-weight:normal;font-size:40px;line-height:125%;font-family:Sans;letter-spacing:0px;word-spacing:0px;fill:#000000;fill-opacity:1;stroke:none;stroke-width:1px;stroke-linecap:butt;stroke-linejoin:miter;stroke-opacity:1"
       transform="matrix(0.22702163,0,0,0.22702163,164.09751,570.01618)"><flowRegion
         id="flowRegion4938"><rect
           id="rect4940"
           width="1457.1428"
           height="1300"
           x="-1531.4286"
           y="-64.780655" /></flowRegion><flowPara
         id="flowPara4942" /></flowRoot>  </g>
</svg>
